<?xml version="1.0" encoding="utf-8"?>
<!-- Generator: Adobe Illustrator 22.1.0, SVG Export Plug-In . SVG Version: 6.00 Build 0)  -->
<svg version="1.1" xmlns="http://www.w3.org/2000/svg" xmlns:xlink="http://www.w3.org/1999/xlink" x="0px" y="0px"
	 viewBox="0 0 138.5 138.5" enable-background="new 0 0 138.5 138.5" xml:space="preserve">
<g id="Layer_2">
	<path fill="#FEFC43" d="M66.3,19.9c15.3,0,17.1,0.1,23.1,0.3c5.6,0.3,8.6,1.2,10.6,2c2.5,0.9,4.7,2.4,6.6,4.3
		c1.9,1.8,3.4,4.1,4.3,6.6c0.8,2,1.7,5,2,10.6c0.3,6,0.3,7.8,0.3,23.1s-0.1,17.1-0.3,23.1c-0.3,5.6-1.2,8.6-2,10.6
		c-1.9,5-5.9,8.9-10.8,10.8c-2,0.8-5,1.7-10.6,2c-6,0.3-7.8,0.3-23.1,0.3s-17.1-0.1-23.1-0.3c-5.6-0.3-8.6-1.2-10.6-2
		c-2.5-0.9-4.7-2.4-6.6-4.3c-1.9-1.8-3.4-4.1-4.3-6.6c-0.8-2-1.7-5-2-10.6c-0.3-6-0.3-7.8-0.3-23.1s0.1-17.1,0.3-23.1
		c0.3-5.6,1.2-8.6,2-10.6c0.9-2.5,2.4-4.7,4.3-6.6c1.8-1.9,4.1-3.4,6.6-4.3c2-0.8,5-1.7,10.6-2C49.2,20,51,19.9,66.3,19.9 M66.3,9.6
		c-15.5,0-17.5,0.1-23.6,0.3c-6.1,0.3-10.2,1.2-13.9,2.7c-3.8,1.4-7.3,3.7-10.1,6.6c-2.9,2.9-5.2,6.3-6.6,10.1
		c-1.4,3.6-2.4,7.8-2.7,13.9c-0.3,6.1-0.4,8-0.4,23.6s0.1,17.5,0.4,23.6c0.3,6.1,1.2,10.2,2.7,13.9c1.4,3.8,3.7,7.3,6.6,10.1
		c2.9,2.9,6.3,5.2,10.1,6.6c3.6,1.4,7.8,2.4,13.9,2.7c6.1,0.3,8,0.3,23.6,0.3s17.5-0.1,23.6-0.3c6.1-0.3,10.2-1.2,13.9-2.7
		c7.7-3,13.8-9,16.7-16.7c1.4-3.6,2.4-7.8,2.7-13.9c0.3-6.1,0.3-8,0.3-23.6s-0.1-17.5-0.3-23.6c-0.3-6.1-1.2-10.2-2.7-13.9
		c-1.4-3.8-3.7-7.3-6.6-10.1c-2.9-2.9-6.3-5.2-10.1-6.6c-3.6-1.4-7.8-2.4-13.9-2.7C83.7,9.7,81.8,9.6,66.3,9.6L66.3,9.6L66.3,9.6z"
		/>
	<path fill="#FEFC43" d="M66.3,37.4c-16.2,0-29.3,13.1-29.3,29.3s13.1,29.3,29.3,29.3S95.6,83,95.6,66.8l0,0
		C95.6,50.6,82.5,37.4,66.3,37.4z M66.3,85.8c-10.5,0-19.1-8.5-19.1-19.1s8.5-19.1,19.1-19.1s19.1,8.5,19.1,19.1
		C85.3,77.3,76.8,85.8,66.3,85.8z"/>
	<circle fill="#FEFC43" cx="96.8" cy="36.3" r="6.9"/>
</g>
<g id="Layer_1">
	<path d="M69.3,22.9c15.3,0,17.1,0.1,23.1,0.3c5.6,0.3,8.6,1.2,10.6,2c2.5,0.9,4.7,2.4,6.6,4.3c1.9,1.8,3.4,4.1,4.3,6.6
		c0.8,2,1.7,5,2,10.6c0.3,6,0.3,7.8,0.3,23.1s-0.1,17.1-0.3,23.1c-0.3,5.6-1.2,8.6-2,10.6c-1.9,5-5.9,8.9-10.8,10.8
		c-2,0.8-5,1.7-10.6,2c-6,0.3-7.8,0.3-23.1,0.3s-17.1-0.1-23.1-0.3c-5.6-0.3-8.6-1.2-10.6-2c-2.5-0.9-4.7-2.4-6.6-4.3
		c-1.9-1.8-3.4-4.1-4.3-6.6c-0.8-2-1.7-5-2-10.6c-0.3-6-0.3-7.8-0.3-23.1s0.1-17.1,0.3-23.1c0.3-5.6,1.2-8.6,2-10.6
		c0.9-2.5,2.4-4.7,4.3-6.6c1.8-1.9,4.1-3.4,6.6-4.3c2-0.8,5-1.7,10.6-2C52.2,23,54,22.9,69.3,22.9 M69.3,12.6
		c-15.5,0-17.5,0.1-23.6,0.3c-6.1,0.3-10.2,1.2-13.9,2.7c-3.8,1.4-7.3,3.7-10.1,6.6c-2.9,2.9-5.2,6.3-6.6,10.1
		c-1.4,3.6-2.4,7.8-2.7,13.9c-0.3,6.1-0.4,8-0.4,23.6s0.1,17.5,0.4,23.6c0.3,6.1,1.2,10.2,2.7,13.9c1.4,3.8,3.7,7.3,6.6,10.1
		c2.9,2.9,6.3,5.2,10.1,6.6c3.6,1.4,7.8,2.4,13.9,2.7c6.1,0.3,8,0.3,23.6,0.3s17.5-0.1,23.6-0.3c6.1-0.3,10.2-1.2,13.9-2.7
		c7.7-3,13.8-9,16.7-16.7c1.4-3.6,2.4-7.8,2.7-13.9c0.3-6.1,0.3-8,0.3-23.6s-0.1-17.5-0.3-23.6c-0.3-6.1-1.2-10.2-2.7-13.9
		c-1.4-3.8-3.7-7.3-6.6-10.1c-2.9-2.9-6.3-5.2-10.1-6.6c-3.6-1.4-7.8-2.4-13.9-2.7C86.7,12.7,84.8,12.6,69.3,12.6L69.3,12.6
		L69.3,12.6z"/>
	<path d="M69.3,40.4c-16.2,0-29.3,13.1-29.3,29.3s13.1,29.3,29.3,29.3S98.6,86,98.6,69.8l0,0C98.6,53.6,85.5,40.4,69.3,40.4z
		 M69.3,88.8c-10.5,0-19.1-8.5-19.1-19.1s8.5-19.1,19.1-19.1s19.1,8.5,19.1,19.1C88.3,80.3,79.8,88.8,69.3,88.8z"/>
	<circle cx="99.8" cy="39.3" r="6.9"/>
</g>
</svg>
