<?xml version="1.0" encoding="utf-8"?>
<!-- Generator: Adobe Illustrator 22.1.0, SVG Export Plug-In . SVG Version: 6.00 Build 0)  -->
<svg version="1.1" xmlns="http://www.w3.org/2000/svg" xmlns:xlink="http://www.w3.org/1999/xlink" x="0px" y="0px"
	 viewBox="0 0 400 393" enable-background="new 0 0 400 393" xml:space="preserve">
<g id="Layer_2">
	<circle fill="none" stroke="#FEFC43" stroke-width="15" stroke-miterlimit="10" cx="203.1" cy="205.6" r="174"/>
	<circle fill="none" stroke="#FEFC43" stroke-width="20" stroke-miterlimit="10" cx="203.1" cy="205.6" r="8.5"/>
	<rect x="29.1" y="201.1" fill="#FEFC43" width="348" height="9"/>
	
		<rect x="29.1" y="201.1" transform="matrix(-1.836970e-16 1 -1 -1.836970e-16 408.6277 2.5163)" fill="#FEFC43" width="348" height="9"/>
	
		<rect x="29.1" y="202.1" transform="matrix(0.7071 0.7071 -0.7071 0.7071 205.5421 -83.0785)" fill="#FEFC43" width="348" height="9"/>
	
		<rect x="29.1" y="202.1" transform="matrix(-0.7071 0.7071 -0.7071 -0.7071 492.7063 209.0584)" fill="#FEFC43" width="348" height="9"/>
</g>
<g id="Layer_1">
	<circle fill="none" stroke="#1E272D" stroke-width="15" stroke-miterlimit="10" cx="194.1" cy="186.6" r="174"/>
	<circle fill="none" stroke="#1E272D" stroke-width="20" stroke-miterlimit="10" cx="194.1" cy="186.6" r="8.5"/>
	<rect x="20.1" y="182.1" fill="#1E272D" width="348" height="9"/>
	
		<rect x="20.1" y="182.1" transform="matrix(-1.836970e-16 1 -1 -1.836970e-16 380.6277 -7.4837)" fill="#1E272D" width="348" height="9"/>
	
		<rect x="20.1" y="183.1" transform="matrix(0.7071 0.7071 -0.7071 0.7071 189.471 -82.2795)" fill="#1E272D" width="348" height="9"/>
	
		<rect x="20.1" y="183.1" transform="matrix(-0.7071 0.7071 -0.7071 -0.7071 463.9073 182.9873)" fill="#1E272D" width="348" height="9"/>
	<g>
	</g>
	<g>
	</g>
	<g>
	</g>
	<g>
	</g>
	<g>
	</g>
	<g>
	</g>
	<g>
	</g>
	<g>
	</g>
	<g>
	</g>
	<g>
	</g>
	<g>
	</g>
	<g>
	</g>
	<g>
	</g>
	<g>
	</g>
	<g>
	</g>
</g>
</svg>
